HIERARCHY
ROOT Hips
{
  OFFSET 265.287 66.7526 -254.649
  CHANNELS 6 Xposition Yposition Zposition Zrotation Xrotation Yrotation
  JOINT LeftUpLeg
  {
    OFFSET 8.64259 1.95398 -2.38835
    CHANNELS 3 Zrotation Xrotation Yrotation
    JOINT LeftLeg
    {
      OFFSET 43.7702 0 0
      CHANNELS 3 Zrotation Xrotation Yrotation
      JOINT LeftFoot
      {
        OFFSET 40.6238 0 0
        CHANNELS 3 Zrotation Xrotation Yrotation
        JOINT LeftToeBase
        {
          OFFSET 12.7242 0 0
          CHANNELS 3 Zrotation Xrotation Yrotation
          End Site
          {
            OFFSET 0 0 0
          }
        }
      }
    }
  }
  JOINT RightUpLeg
  {
    OFFSET -8.2249 1.95398 -2.59336
    CHANNELS 3 Zrotation Xrotation Yrotation
    JOINT RightLeg
    {
      OFFSET 43.5653 0 0
      CHANNELS 3 Zrotation Xrotation Yrotation
      JOINT RightFoot
      {
        OFFSET 40.6238 0 0
        CHANNELS 3 Zrotation Xrotation Yrotation
        JOINT RightToeBase
        {
          OFFSET 12.7242 0 0
          CHANNELS 3 Zrotation Xrotation Yrotation
          End Site
          {
            OFFSET 0 0 0
          }
        }
      }
    }
  }
  JOINT Spine
  {
    OFFSET 0.165834 0.87714 6.61349
    CHANNELS 3 Zrotation Xrotation Yrotation
    JOINT Spine1
    {
      OFFSET 7.38963 1.71661e-005 0
      CHANNELS 3 Zrotation Xrotation Yrotation
      JOINT Spine2
      {
        OFFSET 11.9445 1.14441e-005 0
        CHANNELS 3 Zrotation Xrotation Yrotation
        JOINT Spine3
        {
          OFFSET 14.7254 4.19617e-005 0
          CHANNELS 3 Zrotation Xrotation Yrotation
          JOINT Spine4
          {
            OFFSET 10.9679 0 0
            CHANNELS 3 Zrotation Xrotation Yrotation
            JOINT RightShoulder
            {
              OFFSET 2.46616 -1.6653 3.69651
              CHANNELS 3 Zrotation Xrotation Yrotation
              JOINT RightArm
              {
                OFFSET 13.0012 0 0
                CHANNELS 3 Zrotation Xrotation Yrotation
                JOINT RightForeArm
                {
                  OFFSET 28.7848 1.52588e-005 0
                  CHANNELS 3 Zrotation Xrotation Yrotation
                  JOINT RightHand
                  {
                    OFFSET 26.5688 1.52588e-005 0
                    CHANNELS 3 Zrotation Xrotation Yrotation
                    End Site
                    {
                      OFFSET 0 0 0
                    }
                  }
                }
              }
            }
            JOINT LeftShoulder
            {
              OFFSET 2.38034 -1.29275 -3.7523
              CHANNELS 3 Zrotation Xrotation Yrotation
              JOINT LeftArm
              {
                OFFSET 16.3182 6.10351e-005 0
                CHANNELS 3 Zrotation Xrotation Yrotation
                JOINT LeftForeArm
                {
                  OFFSET 27.0901 0 0
                  CHANNELS 3 Zrotation Xrotation Yrotation
                  JOINT LeftHand
                  {
                    OFFSET 24.5451 1.52588e-005 0
                    CHANNELS 3 Zrotation Xrotation Yrotation
                    End Site
                    {
                      OFFSET 0 0 0
                    }
                  }
                }
              }
            }
            JOINT Neck
            {
              OFFSET 5.0226 -0.0266342 0
              CHANNELS 3 Zrotation Xrotation Yrotation
              JOINT Head
              {
                OFFSET 6.69364 2.86102e-005 0
                CHANNELS 3 Zrotation Xrotation Yrotation
                End Site
                {
                  OFFSET 0 0 0
                }
              }
            }
          }
        }
      }
    }
  }
}
MOTION
Frames:	15
Frame Time:	0.0416667
-1.54548 13.0531 -53.1364 168.971 -5.67394 169 -163.034 75.4709 58.9634 -132.084 10.5755 1.48733 39.9539 -6.26521 -5.89128 24.9462 0.720785 3.16737 169.31 67.2405 60.5396 -103.224 -29.6121 -2.24099 43.019 10.744 14.5137 25.7449 0.976087 -3.73212 -0.937364 14.5858 -90.8233 -2.32034 -2.15103 -1.76425 -13.9906 -2.22658 -1.66787 -36.5243 -1.52151 -2.32902 -16.5116 -1.52152 -2.32902 95.6446 -18.3758 -98.5244 78.4659 -16.6686 31.5841 -5.16726 -28.7793 -44.6675 -79.1725 -7.2626 3.76377 -87.3209 -38.6597 80.3588 -11.5094 40.2652 -6.57806 7.2835 3.65308 -44.3839 2.04103 -0.171935 -7.18449 -49.5756 3.40703 -14.6805 3.165 -1.16684 0.0262898 
-1.44023 12.9515 -53.0877 169.915 -6.13857 170.207 -159.833 75.0432 57.2689 -134.769 8.90574 1.64109 41.3858 -5.61605 -4.26606 23.1456 1.14237 3.71869 178.872 70.2003 51.5527 -111.92 -31.0232 -3.74181 41.8801 11.2847 14.1355 27.0383 0.734355 -3.65699 -0.872581 14.8239 -90.8637 -2.79634 -2.03155 -1.84514 -14.4669 -2.11077 -1.75394 -36.9983 -1.38326 -2.37023 -16.9857 -1.38326 -2.37022 95.2505 -16.8482 -100.03 78.4423 -18.0553 26.6267 2.87729 -28.3076 -35.1295 -83.5345 -6.44431 2.17202 -87.1224 -35.372 79.9759 -9.46284 44.2442 -12.1697 2.41252 2.33719 -40.6395 2.14717 -0.234409 -8.01498 -50.5802 3.42107 -13.8899 4.30302 -1.0539 -0.107967 
-1.15454 13.1381 -52.9534 170.219 -7.39638 172.152 -164.559 74.6136 62.3131 -135.921 7.0007 1.49704 46.1644 -3.56226 -0.859082 24.7629 0.735533 3.42488 -174.03 70.7785 45.2959 -117.538 -32.8302 -4.36509 41.9548 11.3273 13.6067 24.7713 1.38299 -5.16827 -0.784866 14.9092 -90.88 -2.96557 -1.86116 -1.86571 -14.6364 -1.94145 -1.78201 -37.1661 -1.21457 -2.33863 -17.1535 -1.21456 -2.33864 94.6367 -17.7525 -101.255 76.0598 -17.8971 21.9385 8.65616 -29.1293 -25.6832 -85.9912 -6.36845 1.74852 -87.0706 -32.6328 79.4196 -12.9568 43.694 -12.0166 2.97069 5.39565 -37.939 -1.8719 -0.107845 -9.1716 -50.7243 3.40779 -13.648 4.54651 -0.993724 0.0310462 
-1.2265 13.5487 -52.6238 170.765 -9.48303 174.194 -175.053 74.7937 73.5767 -135.787 6.18757 1.12367 47.2594 -2.67994 2.92997 27.8914 -0.262111 4.4831 -170.552 71.5119 44.4736 -121.597 -33.2491 -4.6278 44.5024 10.2034 11.5457 22.1623 1.70801 -4.17907 -0.615471 15.0092 -90.9309 -3.16343 -1.53999 -1.93993 -14.8348 -1.62387 -1.87029 -37.3613 -0.88596 -2.3129 -17.3487 -0.885944 -2.3129 94.2383 -20.4784 -101.238 71.7518 -17.7604 18.4754 12.8093 -30.1768 -18.3597 -90.0647 -6.28087 1.17086 -87.0496 -31.6092 79.2037 -14.9633 45.4949 -11.4178 1.96129 4.89098 -37.1191 2.20959 -0.241467 -8.05158 -48.1088 2.82661 -12.1691 4.25041 -0.880875 -1.05362 
-1.20758 14.4144 -51.8207 169.361 -13.3396 175.849 174.145 77.5382 84.979 -136.145 9.4168 0.710082 44.8576 -3.97972 5.5298 31.2227 -1.20876 4.99459 -170.477 74.6487 45.5415 -126.648 -30.6619 -4.77493 47.7473 8.57108 9.3184 19.4473 1.65812 -1.39231 -0.623266 15.0645 -91.1915 -3.28016 -1.64318 -2.45491 -14.9522 -1.7496 -2.38026 -37.4717 -0.829751 -2.83496 -17.4591 -0.829748 -2.83497 93.8186 -25.1624 -100.652 64.7153 -18.1117 15.2395 15.7928 -31.3513 -12.7259 -85.5031 -5.96616 1.41628 -87.5039 -31.8378 78.4042 -15.6012 47.1152 -11.2411 0.521841 4.19689 -36.8296 3.52002 -0.250904 -7.45764 -46.1279 1.91663 -10.201 6.20388 -0.967754 -0.452569 
-0.956426 15.7631 -49.5887 168.408 -17.2732 173.994 -171.278 79.6739 71.3549 -138.651 7.9719 1.12586 48.2016 -2.397 6.58856 31.7389 -1.35148 5.09993 -149.125 74.3619 25.1651 -136.339 -33.9718 -4.46472 53.9648 5.43819 5.51207 20.527 1.90342 -3.60844 -0.889646 14.9303 -91.0548 -3.01537 -2.12873 -2.22882 -14.6863 -2.22474 -2.13301 -37.2129 -1.36075 -2.76526 -17.2003 -1.36075 -2.76527 94.0119 -30.12 -98.8312 58.0571 -17.0636 12.3094 18.672 -31.4488 -6.6438 -88.1307 -4.48419 -0.435282 -88.228 -32.7283 77.2895 -17.4026 48.4081 -9.77437 2.70638 8.64619 -36.4201 7.63602 -0.249008 -6.17966 -48.2758 1.57206 -9.27892 7.90955 -1.25164 -0.231804 
0.068415 17.1555 -46.5327 167.585 -21.9769 170.421 -133.105 77.4938 33.16 -141.944 2.86923 2.16842 53.6374 0.791774 9.70734 32.8544 -1.61742 4.78006 -127.862 68.6477 3.88705 -143.433 -38.8487 -3.44878 57.278 4.11374 -0.542585 22.5069 1.41176 -2.84173 -1.3528 14.4269 -90.7847 -2.01103 -2.96692 -1.7428 -13.6796 -3.04074 -1.61048 -36.2233 -2.30612 -2.55394 -16.2107 -2.30612 -2.55394 94.7462 -33.0601 -96.6689 53.2449 -14.3948 11.516 20.3785 -37.9845 -1.65311 -88.9107 -6.16252 1.24172 -87.9514 -34.856 78.3577 -19.8107 47.7896 -8.06322 2.75853 12.7122 -34.3448 8.92451 -0.130491 -4.76993 -51.9505 1.41399 -7.54204 9.80046 -1.11421 0.21196 
1.58806 17.7127 -43.2865 164.951 -25.748 166.296 -111.414 70.8924 8.84138 -145.187 -3.07304 3.28218 58.4352 3.90156 11.2497 33.2368 -1.75323 5.27154 -120.9 61.9105 -5.59696 -145.052 -41.1575 -2.5784 58.3965 3.28459 -2.6901 24.5142 0.598536 0.211397 -1.97665 14.0279 -90.6862 -1.22318 -4.18207 -1.60122 -12.8882 -4.24848 -1.41535 -35.456 -3.5075 -2.78501 -15.4433 -3.5075 -2.78501 95.6671 -35.3063 -94.474 48.2346 -12.7727 12.0442 21.1685 -41.9563 0.181067 -92.7353 -5.64731 0.31421 -87.8452 -35.1984 78.633 -26.3483 46.4999 -4.37704 4.09344 17.7861 -32.7542 11.2123 0.0484342 -3.24629 -52.7693 0.736384 -5.44498 10.7086 -0.956108 1.43051 
2.7936 18.2135 -40.8157 160.201 -28.6787 161.768 -105.172 64.648 -1.18397 -147.131 -5.73398 4.02313 61.5394 5.86773 13.5776 33.9209 -1.93185 5.2881 -120.721 56.4359 -9.63632 -146.584 -44.999 -1.95249 60.3115 1.82506 -5.96132 28.928 -0.0583419 0.264222 -2.52897 14.0591 -90.757 -1.30529 -5.30618 -1.81801 -12.9664 -5.38102 -1.58215 -35.5584 -4.51435 -3.33089 -15.5457 -4.51436 -3.3309 96.0241 -43.148 -92.611 37.5545 -12.7748 9.32929 21.6205 -44.7472 0.0162975 -90.101 -6.85007 1.78151 -87.7848 -34.5345 78.5813 -32.4759 42.6376 -2.41651 5.70761 22.9259 -30.7288 12.3661 0.0358591 -3.32198 -51.839 -0.146466 -3.76035 13.7322 -0.843124 3.51842 
3.50244 19.3115 -39.5215 155.808 -32.2534 156.161 -102.876 60.2446 -5.80274 -147.146 -7.24309 4.54158 63.6501 7.03045 14.3617 36.5986 -2.63939 5.67581 -120.648 53.0027 -13.0999 -147.863 -47.5255 -1.60357 65.4829 -2.06328 -8.28878 30.6927 -0.391285 1.16292 -2.73948 14.3553 -90.9323 -1.918 -5.77902 -2.23371 -13.5776 -5.8717 -1.97651 -36.175 -4.84053 -3.86971 -16.1623 -4.84053 -3.86972 95.4277 -52.2516 -92.3701 26.3685 -12.3038 4.13519 22.7949 -46.6847 0.0175538 -83.3222 -10.5713 6.88097 -87.7467 -37.5544 79.3729 -31.6355 36.6136 -5.33544 10.4607 33.4347 -30.5663 16.2229 0.668062 0.261142 -47.9829 -3.14695 1.89144 17.7637 -2.47305 1.08843 
4.18075 21.246 -39.3503 151.549 -35.4779 151.745 -105.283 59.2856 -4.81166 -145.948 -4.78228 4.504 64.8652 8.50374 18.875 38.3107 -3.07752 5.8841 -124.269 52.9921 -12.8069 -147.686 -48.5981 -1.85397 70.0455 -6.29555 -10.5853 32.9577 -0.670712 0.809579 -2.3724 14.8404 -91.1585 -2.88752 -5.10704 -2.7021 -14.5506 -5.22102 -2.47435 -37.1193 -4.05903 -4.11257 -17.1066 -4.05902 -4.11256 94.1282 -51.8215 -94.3959 29.4798 -16.4222 2.49319 20.2588 -48.9184 -2.47911 -66.1916 -10.3247 10.8302 -88.0964 -40.9174 79.5318 -25.4428 31.9304 -11.6982 12.8516 43.6058 -29.6292 17.9963 1.26952 3.20664 -42.5799 -4.97941 3.41117 21.6913 -4.75003 -1.99452 
4.40805 24.4009 -39.9576 150.719 -33.5139 160.229 -132.286 68.6793 23.9472 -145.354 -2.62046 2.70366 70.9705 12.1774 19.6276 36.292 -2.44385 2.84868 -156.556 62.3906 20.0494 -145.055 -41.9886 -3.64969 72.5693 -10.4091 -13.0363 35.1914 -1.0084 1.99402 -1.05657 16.1543 -92.0299 -5.51125 -2.74483 -4.23392 -17.1861 -2.92831 -4.10925 -39.6716 -1.34749 -4.86171 -19.659 -1.34748 -4.8617 94.1876 -48.1152 -94.8713 31.8909 -31.7742 5.81882 3.80422 -35.6481 -24.5816 -34.018 -3.70856 5.52499 -88.1455 -44.1108 80.1407 -18.2983 27.6049 -16.9993 11.5939 48.6762 -26.7869 18.3737 1.8235 6.04643 -35.8872 -5.48233 2.41422 23.1712 -6.11265 -4.04584 
1.66328 28.003 -39.3301 152.661 -40.9837 159.864 -144.822 73.892 43.1011 -143.869 7.24699 1.63606 75.6526 15.2601 23.2641 34.7315 -1.83984 -0.0871439 -169.023 69.8434 38.1782 -144.345 -34.8323 -4.37948 74.8805 -15.038 -17.1486 39.4977 -1.58495 1.35244 -0.585573 16.3057 -91.2633 -5.7622 -1.56017 -2.63059 -17.4347 -1.67439 -2.55944 -39.9513 -0.697757 -2.97756 -19.9386 -0.697764 -2.97757 95.4641 -44.271 -93.3821 23.7933 -41.2243 4.15529 -15.814 -30.919 -46.9834 -17.8619 -0.759952 0.15372 -88.4306 -48.8601 80.6211 -9.65129 24.024 -21.9776 3.57628 51.7641 -17.9413 20.2491 2.08237 6.46262 -29.0672 -5.16556 1.58686 24.2454 -6.48867 -5.73197 
-0.399061 31.0303 -37.4406 151.039 -47.0075 154.705 -151.105 75.198 51.8463 -142.394 12.1455 1.26064 78.8088 16.9755 23.4862 36.241 -2.3828 1.72569 -175.493 71.4632 46.2533 -144.206 -29.7287 -4.53306 81.3058 -21.1109 -16.7051 39.1941 -1.50563 0.0447342 -0.828863 16.1476 -90.338 -5.43122 -1.7485 -0.862186 -17.1012 -1.78476 -0.784383 -39.6407 -1.40857 -1.34787 -19.6281 -1.40857 -1.34786 96.6395 -39.4666 -92.037 17.5413 -37.5298 1.56834 -15.1194 -18.8325 -51.4127 -18.1158 -0.661233 -0.973238 -89.5803 -50.8842 79.2998 -4.81662 20.6177 -23.6778 -6.7307 52.7653 -6.32018 17.5825 1.99075 7.42006 -22.9748 -3.44097 -1.69548 22.8668 -4.56651 -4.30877 
-1.62621 32.9575 -34.609 147.052 -51.7816 148.267 -152.503 77.6254 53.9471 -142.764 13.333 1.157 81.0826 16.0571 18.7144 37.6456 -2.8464 3.78629 -179.309 71.8367 48.7533 -144.765 -27.0758 -4.49378 86.9217 -26.6765 -16.873 38.943 -1.50846 2.09649 -1.11501 15.7824 -89.5844 -4.69069 -2.07303 0.574396 -16.3602 -2.04574 0.665101 -38.9085 -2.14979 -0.0754821 -18.8959 -2.14979 -0.0754871 97.7776 -35.4329 -90.467 13.5418 -23.1915 -3.17284 -11.2073 -11.316 -50.1503 -14.1021 -0.141247 -4.08119 -89.9454 -50.6024 78.6991 -3.65732 16.5381 -23.2332 -11.6743 54.6812 0.433197 15.223 1.50923 5.94122 -18.6783 -2.61002 -4.76697 21.2219 -3.65993 -4.35602 
